<svg width="81" height="80" viewBox="0 0 81 80" fill="none" xmlns="http://www.w3.org/2000/svg">
<path fill-rule="evenodd" clip-rule="evenodd" d="M40.5882 40.9328C40.5706 40.9549 40.5531 40.977 40.5355 40.999L40.4656 40.9227C34.1379 48.826 25.8146 51.9899 19.5499 51.9899C13.1488 51.9899 7.95959 46.8007 7.95959 40.3996C7.95959 33.9984 13.1488 28.8092 19.5499 28.8092C25.826 28.8092 32.9426 31.7618 40.4282 39.9065L40.4645 39.8608C40.4755 39.8729 40.4865 39.8849 40.4975 39.8969C46.8272 31.9786 55.1594 28.8093 61.4296 28.8093C67.8307 28.8093 73.0199 33.9984 73.0199 40.3996C73.0199 46.8007 67.8307 51.9899 61.4296 51.9899C55.1638 51.9899 48.0603 49.047 40.5882 40.9328ZM40.4645 39.8608C48.3504 29.961 58.7488 26 66.5701 26C74.5395 26 81 32.4605 81 40.4299C81 48.3994 74.5395 54.8599 66.5701 54.8599C58.7448 54.8599 49.8702 51.1731 40.5355 40.999C32.6496 50.8988 22.2512 54.8599 14.4299 54.8599C6.4605 54.8599 0 48.3994 0 40.4299C0 32.4605 6.4605 26 14.4299 26C22.2552 26 31.1298 29.6868 40.4645 39.8608Z" fill="#FF7B43"/>
</svg>
