<svg width="171" height="94" viewBox="0 0 171 94" fill="none" xmlns="http://www.w3.org/2000/svg">
<path d="M45.5 14L19.5 32.5V62L45.5 79L72.5 62V32.5L45.5 14Z" stroke="black" stroke-width="5"/>
<path d="M26.5 35L46 47.5M46 47.5L67 35M46 47.5V72.5" stroke="black" stroke-width="5"/>
<path d="M90.4318 59H81.9091L91.5114 29.9091H102.307L111.909 59H103.386L97.0227 37.9205H96.7955L90.4318 59ZM88.8409 47.5227H104.864V53.4318H88.8409V47.5227ZM114.711 59V29.9091H127.268C129.427 29.9091 131.316 30.3021 132.935 31.0881C134.555 31.8741 135.814 33.0057 136.714 34.483C137.613 35.9602 138.063 37.7311 138.063 39.7955C138.063 41.8788 137.599 43.6354 136.671 45.0653C135.753 46.4953 134.46 47.5748 132.793 48.304C131.136 49.0331 129.2 49.3977 126.984 49.3977H119.484V43.2614H125.393C126.321 43.2614 127.112 43.1477 127.765 42.9205C128.428 42.6837 128.934 42.3097 129.285 41.7983C129.645 41.2869 129.825 40.6193 129.825 39.7955C129.825 38.9621 129.645 38.285 129.285 37.7642C128.934 37.2339 128.428 36.8456 127.765 36.5994C127.112 36.3437 126.321 36.2159 125.393 36.2159H122.609V59H114.711ZM131.756 45.6477L139.029 59H130.45L123.347 45.6477H131.756Z" fill="black"/>
<path d="M2.5 21.5V3H22" stroke="black" stroke-width="5"/>
<path d="M149.5 2.5L168 2.5V22" stroke="black" stroke-width="5"/>
<path d="M168 72.5V91H148.5" stroke="black" stroke-width="5"/>
<path d="M3 73V91.5H23" stroke="black" stroke-width="5"/>
</svg>
