<svg width="11" height="45" viewBox="0 0 11 45" fill="none" xmlns="http://www.w3.org/2000/svg">
<path d="M8.5 24.6203H2.5V38.1203L3.5 40.1203L4 42.1203V44.1203H6.5V42.1203L8.5 38.1203V24.6203Z" fill="#0000FF"/>
<path d="M2.5 11.1203H1V7.1203H2.5M2.5 11.1203H8.5M2.5 11.1203V24.6203M8.5 11.1203H10V7.1203H8.5M8.5 11.1203V24.6203M2.5 7.1203C2.5 7.1203 1.648 2.77616 3.5 1.6203C4.82518 0.793234 6.17482 0.793234 7.5 1.6203C9.352 2.77616 8.5 7.1203 8.5 7.1203M2.5 7.1203H8.5M2.5 24.6203V38.1203C2.5 38.1203 4.5 41.6203 4 43.1203C3.5 44.6203 7 44.6203 6.5 43.1203C6 41.6203 8.5 38.1203 8.5 38.1203V24.6203M2.5 24.6203H8.5" stroke="black"/>
</svg>
