<svg width="121" height="121" viewBox="0 0 121 121" fill="none" xmlns="http://www.w3.org/2000/svg">
<path d="M32.485 76.32C36.3905 76.32 39.5646 79.497 39.5646 83.3997C39.5646 87.3027 36.3903 90.4794 32.485 90.4794C28.582 90.4794 25.4053 87.3024 25.4053 83.3997C25.405 79.4968 28.582 76.32 32.485 76.32Z" fill="white"/>
<path d="M88.5152 76.32C92.4182 76.32 95.5949 79.497 95.5949 83.3997C95.5949 87.3027 92.418 90.4794 88.5152 90.4794C84.6097 90.4794 81.4355 87.3024 81.4355 83.3997C81.4355 79.4968 84.6099 76.32 88.5152 76.32Z" fill="white"/>
<path d="M49.2448 27.9458V47.5762H12.5381L28.0081 31.1407C29.4679 29.5883 33.2678 27.9458 35.3995 27.9458H49.2448Z" fill="white"/>
<path d="M79.3268 30.4996L87.2665 47.5759H49.2441V27.9458H75.3029C76.5696 27.9458 78.7887 29.3538 79.3268 30.4996Z" fill="#C5E2E2"/>
<path d="M108.027 55.2994C108.027 54.079 108.225 52.9077 108.591 51.8083C108.591 51.8057 99.5623 48.7961 99.5623 48.7961C97.5464 48.1268 95.16 46.0027 94.2537 44.0823L86.314 27.2092C84.5068 23.3655 79.5507 20.2221 75.303 20.2221H35.3987C31.151 20.2221 25.2941 22.7527 22.3823 25.8474L4.5773 44.7646C3.1227 46.3118 1.93066 49.3136 1.93066 51.4375V75.676C1.93066 79.9238 5.40611 83.3995 9.6541 83.3995H15.1069C15.1069 73.802 22.8871 66.0218 32.4846 66.0218C42.0821 66.0218 49.8623 73.802 49.8623 83.3995H71.1377C71.1377 73.802 78.9179 66.0218 88.5154 66.0218C98.1129 66.0218 105.893 73.802 105.893 83.3995C105.893 83.3995 108.642 83.3995 112.342 83.3995C116.041 83.3995 119.069 79.924 119.069 75.676V66.3411C112.97 66.3413 108.027 61.3983 108.027 55.2994ZM12.5375 47.5762L28.0076 31.1407C29.4674 29.5883 33.2673 27.9458 35.399 27.9458H75.3032C76.5699 27.9458 78.7891 29.3541 79.3272 30.4996L87.2669 47.5759L12.5375 47.5762Z" fill="#ED6951"/>
<path d="M32.4851 66.022C42.0826 66.022 49.8628 73.8022 49.8628 83.3997C49.8628 92.9972 42.0826 100.777 32.4851 100.777C22.8876 100.777 15.1074 92.9972 15.1074 83.3997C15.1074 73.8022 22.8873 66.022 32.4851 66.022ZM39.5648 83.3997C39.5648 79.4968 36.3904 76.32 32.4851 76.32C28.5821 76.32 25.4054 79.497 25.4054 83.3997C25.4054 87.3027 28.5824 90.4794 32.4851 90.4794C36.3904 90.4796 39.5648 87.3027 39.5648 83.3997Z" fill="#AECE71"/>
<path d="M88.5154 66.022C98.1129 66.022 105.893 73.8022 105.893 83.3997C105.893 92.9972 98.1129 100.777 88.5154 100.777C78.9179 100.777 71.1377 92.9972 71.1377 83.3997C71.1377 73.8022 78.9179 66.022 88.5154 66.022ZM95.5953 83.3997C95.5953 79.4968 92.4183 76.32 88.5156 76.32C84.6101 76.32 81.4359 79.497 81.4359 83.3997C81.4359 87.3027 84.6103 90.4794 88.5156 90.4794C92.4183 90.4796 95.5953 87.3027 95.5953 83.3997Z" fill="#AECE71"/>
<path d="M108.594 51.8086C114.356 53.7292 119.069 60.2682 119.069 66.3413C112.97 66.3413 108.027 61.3983 108.027 55.2994C108.027 54.0792 108.226 52.9077 108.594 51.8086Z" fill="#EEC278"/>
<path d="M32.4853 92.4107C37.4539 92.4107 41.496 88.3685 41.496 83.4C41.496 78.4314 37.4539 74.3892 32.4853 74.3892C27.5168 74.3892 23.4746 78.4314 23.4746 83.4C23.4746 88.3685 27.5168 92.4107 32.4853 92.4107ZM32.4853 78.2511C35.3243 78.2511 37.6342 80.5609 37.6342 83.4C37.6342 86.239 35.3243 88.5488 32.4853 88.5488C29.6463 88.5488 27.3364 86.239 27.3364 83.4C27.3364 80.5609 29.6458 78.2511 32.4853 78.2511Z" fill="#700019"/>
<path d="M88.5146 74.3895C83.5461 74.3895 79.5039 78.4316 79.5039 83.4002C79.5039 88.3688 83.5461 92.4109 88.5146 92.4109C93.4832 92.4109 97.5253 88.3688 97.5253 83.4002C97.5253 78.4316 93.4832 74.3895 88.5146 74.3895ZM88.5146 88.5488C85.6756 88.5488 83.3657 86.239 83.3657 83.4C83.3657 80.5609 85.6756 78.2511 88.5146 78.2511C91.3536 78.2511 93.6635 80.5609 93.6635 83.4C93.6635 86.239 91.3541 88.5488 88.5146 88.5488Z" fill="#700019"/>
<path d="M35.3984 29.8764H41.5203C42.5868 29.8764 43.4511 29.0119 43.4511 27.9456C43.4511 26.8793 42.5868 26.0148 41.5203 26.0148H35.3984C32.7152 26.0148 28.4393 27.8621 26.5997 29.8166L11.1301 46.2532C10.6022 46.8142 10.4585 47.6352 10.7638 48.3423C11.0694 49.0494 11.7661 49.5072 12.5363 49.5072H87.2656C87.9252 49.5072 88.5387 49.1707 88.8934 48.6146C89.2479 48.0587 89.2945 47.3602 89.0166 46.7623L81.0733 29.6769C80.22 27.8629 77.3075 26.0148 75.3027 26.0148H49.2437C48.1772 26.0148 47.3129 26.8793 47.3129 27.9456L47.3127 45.6456H17.0055L29.4118 32.4632C30.5041 31.3026 33.8054 29.8764 35.3984 29.8764ZM51.1745 29.8764H75.2972C75.8644 29.9028 77.3162 30.824 77.5755 31.3132L84.239 45.6456H51.1743L51.1745 29.8764Z" fill="#700019"/>
<path d="M121 66.3418C121 59.4857 115.708 52.1439 109.204 49.9758C109.2 49.9742 100.173 46.9655 100.173 46.9655C98.6663 46.4633 96.6783 44.697 96.0019 43.2599L88.0622 26.3882C85.9256 21.8478 80.3213 18.2911 75.3031 18.2911H35.3989C30.6002 18.2911 24.265 21.0282 20.9762 24.5228L3.17176 43.4404C1.39315 45.3303 0 48.8429 0 51.438V75.6765C0 81 4.33071 85.3308 9.65424 85.3308H13.2738C14.2456 95.0741 22.4904 102.708 32.4857 102.708C42.4809 102.708 50.7255 95.0741 51.6975 85.3308H63.4137C64.4802 85.3308 65.3445 84.4663 65.3445 83.4C65.3445 82.3336 64.4802 81.4692 63.4137 81.4692H51.6975C50.7257 71.7258 42.4809 64.0915 32.4857 64.0915C22.4904 64.0915 14.2459 71.7258 13.2738 81.4692H9.65424C6.46027 81.4692 3.8616 78.8707 3.8616 75.6765V51.438C3.8616 49.8177 4.87309 47.2673 5.98359 46.0875L23.7883 27.1695C26.3475 24.45 31.6647 22.1529 35.3989 22.1529H75.3031C78.8256 22.1529 83.0682 24.8454 84.5679 28.0325L92.5076 44.9042C93.6457 47.3231 96.4162 49.7842 98.9518 50.6293L106.289 53.0748C106.162 53.8062 106.096 54.5497 106.096 55.2996C106.096 61.797 110.897 67.1931 117.138 68.1284V75.6768C117.138 78.871 114.987 81.4694 112.342 81.4694H107.726C106.754 71.7261 98.5096 64.0917 88.5143 64.0917C77.8675 64.0917 69.2059 72.7536 69.2059 83.4002C69.2059 94.0468 77.8678 102.709 88.5143 102.709C98.5094 102.709 106.754 95.0743 107.726 85.331H112.342C117.116 85.331 121 81.0003 121 75.6768V66.3418ZM32.4857 67.9533C41.0029 67.9533 47.9325 74.8827 47.9325 83.4002C47.9325 91.9177 41.0032 98.8471 32.4857 98.8471C23.9682 98.8471 17.0388 91.9177 17.0388 83.4002C17.0388 74.8827 23.9684 67.9533 32.4857 67.9533ZM88.5143 98.8468C79.9971 98.8468 73.0675 91.9175 73.0675 83.4C73.0675 74.8825 79.9968 67.9531 88.5143 67.9531C97.0318 67.9531 103.961 74.8825 103.961 83.4C103.961 91.9175 97.0316 98.8468 88.5143 98.8468ZM109.958 55.2996C109.958 55.05 109.968 54.8017 109.988 54.5547C113.376 56.5183 116.112 60.3138 116.904 64.1487C112.922 63.1745 109.958 59.5776 109.958 55.2996Z" fill="#700019"/>
</svg>
