<svg width="104" height="104" viewBox="0 0 104 104" fill="none" xmlns="http://www.w3.org/2000/svg">
<circle cx="52" cy="52" r="48.5" stroke="black" stroke-width="7"/>
<path d="M58.12 39.04C59.1333 39.04 59.7733 39.0667 60.04 39.12C60.04 41.7333 59.5867 44.16 58.68 46.4C58.4667 57.92 58.3333 66.56 58.28 72.32L64.52 73.04C64.52 75.2267 63.9067 77.5467 62.68 80H42.76L42.04 75.6C45.3467 74.3733 47.7467 73.5733 49.24 73.2L48.36 47.28C45.2133 46.96 42.8933 46.56 41.4 46.08C41.4 44.7467 41.5867 42.8267 41.96 40.32C45.1067 39.4667 50.4933 39.04 58.12 39.04ZM58.12 23.92C58.6 26.32 58.84 28.16 58.84 29.44C58.84 30.6667 58.7333 32.0533 58.52 33.6C56.3867 34.08 54.5733 34.32 53.08 34.32C51.64 34.32 49.88 34.24 47.8 34.08C47.32 31.68 47.08 29.8667 47.08 28.64C47.08 27.36 47.1867 25.9467 47.4 24.4C49.5333 23.92 51.32 23.68 52.76 23.68C54.2533 23.68 56.04 23.76 58.12 23.92Z" fill="black"/>
</svg>
