<svg width="316" height="324" viewBox="0 0 316 324" fill="none" xmlns="http://www.w3.org/2000/svg">
<g clip-path="url(#clip0_55_38)" filter="url(#filter0_d_55_38)">
<path d="M255.854 201.368C250.318 207.636 243.838 213.374 236.49 218.35C223.625 227.068 211.069 231.62 198.706 232.921C171.318 235.805 144.76 222.748 117.275 203.528C103.369 193.817 88.5378 185.205 73.1655 179.93L33.0297 245.988C28.7674 252.96 26.3369 261.157 26.3369 269.923C26.3369 295.372 46.9547 316 72.4138 316H243.587C269.027 316 289.664 295.372 289.664 269.923C289.664 261.157 287.215 252.96 282.971 245.988L255.854 201.368Z" fill="url(#paint0_linear_55_38)"/>
<path d="M197.491 36V105.336L282.971 245.988C287.215 252.96 289.664 261.158 289.664 269.923C289.664 295.372 269.027 316 243.587 316H72.4138C46.9547 316 26.3369 295.372 26.3369 269.923C26.3369 261.157 28.7674 252.96 33.0297 245.988L118.491 105.337V36" stroke="black" stroke-width="4"/>
<path d="M208.164 19.75C208.164 29.2755 200.431 37.0001 190.914 37.0001H125.087C115.552 37.0001 107.837 29.2771 107.837 19.75C107.837 10.223 115.552 2.5 125.087 2.5H190.914C200.431 2.5 208.164 10.2246 208.164 19.75Z" stroke="black" stroke-width="5"/>
</g>
<defs>
<filter id="filter0_d_55_38" x="-4" y="0" width="324" height="324" filterUnits="userSpaceOnUse" color-interpolation-filters="sRGB">
<feFlood flood-opacity="0" result="BackgroundImageFix"/>
<feColorMatrix in="SourceAlpha" type="matrix" values="0 0 0 0 0 0 0 0 0 0 0 0 0 0 0 0 0 0 127 0" result="hardAlpha"/>
<feOffset dy="4"/>
<feGaussianBlur stdDeviation="2"/>
<feComposite in2="hardAlpha" operator="out"/>
<feColorMatrix type="matrix" values="0 0 0 0 0 0 0 0 0 0 0 0 0 0 0 0 0 0 0.25 0"/>
<feBlend mode="normal" in2="BackgroundImageFix" result="effect1_dropShadow_55_38"/>
<feBlend mode="normal" in="SourceGraphic" in2="effect1_dropShadow_55_38" result="shape"/>
</filter>
<linearGradient id="paint0_linear_55_38" x1="158.001" y1="179.93" x2="158.001" y2="316" gradientUnits="userSpaceOnUse">
<stop stop-color="#FF0000" stop-opacity="0"/>
<stop offset="1" stop-color="#FF0000"/>
</linearGradient>
<clipPath id="clip0_55_38">
<rect width="316" height="316" fill="white"/>
</clipPath>
</defs>
</svg>
