<svg width="269" height="269" viewBox="0 0 269 269" fill="none" xmlns="http://www.w3.org/2000/svg">
<path d="M258.22 10.7801C264.757 35.2224 263.82 61.2472 255.417 85.2438H255.41L183.756 13.5899V13.5835C207.753 5.17982 233.778 4.24321 258.22 10.7801Z" fill="#FF7124"/>
<path d="M58.2705 134.303L114.558 68.7917H114.564L136.339 43.4452C150.181 29.6027 166.439 19.6488 183.757 13.5835V13.5899L255.411 85.2438H255.417C249.352 102.561 239.398 118.82 225.555 132.662L200.209 154.437L134.691 210.724L115.591 191.623L96.4842 172.516L77.3773 153.41L58.2705 134.303ZM191.269 124.917C204.304 111.889 204.304 90.7536 191.269 77.7251C178.24 64.69 157.105 64.69 144.077 77.7251C131.042 90.7536 131.042 111.889 144.077 124.917C157.105 137.952 178.24 137.952 191.269 124.917Z" fill="#2A4C64"/>
<path d="M200.209 154.437C201.333 183.891 190.649 213.721 168.164 236.206C161.259 243.104 153.669 248.898 145.601 253.575L134.691 210.724L200.209 154.437Z" fill="#2A4C64"/>
<path d="M191.269 77.7251C204.304 90.7536 204.304 111.889 191.269 124.917C178.24 137.952 157.105 137.952 144.077 124.917C131.042 111.889 131.042 90.7536 144.077 77.7251C157.105 64.69 178.24 64.69 191.269 77.7251Z" fill="#8ECAC1"/>
<path d="M134.691 210.724L108.892 220.225C101.8 222.841 93.8354 221.091 88.4935 215.743L84.0688 211.318L115.591 191.623L134.691 210.724Z" fill="#803493"/>
<path d="M115.591 191.623L84.0691 211.318H84.0626L70.8726 198.128L96.484 172.516L115.591 191.623Z" fill="#803493"/>
<path d="M114.557 68.7917L58.2703 134.303L15.4253 123.399C20.1019 115.332 25.8959 107.742 32.7946 100.837C55.2796 78.3516 85.0961 67.6678 114.557 68.7917Z" fill="#2A4C64"/>
<path d="M96.4841 172.516L70.8727 198.128L57.6826 184.931L77.3772 153.41L96.4841 172.516Z" fill="#803493"/>
<path d="M77.3771 153.41L57.6825 184.931L53.2514 180.507C47.9095 175.158 46.159 167.2 48.7686 160.108L58.2703 134.303L77.3771 153.41Z" fill="#803493"/>
<path d="M18.655 219.263C17.0021 219.263 15.3485 218.632 14.0876 217.371C11.5652 214.849 11.5652 210.758 14.0876 208.235L27.3551 194.968C29.8775 192.446 33.9676 192.446 36.4906 194.968C39.013 197.49 39.013 201.58 36.4906 204.103L23.2231 217.371C21.9616 218.632 20.3086 219.263 18.655 219.263Z" fill="white"/>
<path d="M6.45954 268.987C4.80594 268.987 3.15298 268.356 1.89147 267.095C-0.630919 264.572 -0.630273 260.482 1.89211 257.96L46.1195 213.739C48.6418 211.217 52.7319 211.217 55.2543 213.739C57.7767 216.262 57.776 220.352 55.253 222.874L11.0257 267.095C9.76544 268.357 8.11249 268.987 6.45954 268.987Z" fill="white"/>
<path d="M47.341 265.641C45.6874 265.641 44.0351 265.01 42.7736 263.749C40.2512 261.227 40.2512 257.137 42.7736 254.614L64.8841 232.504C67.4064 229.982 71.4965 229.983 74.0189 232.504C76.5413 235.026 76.5413 239.116 74.0189 241.639L51.9085 263.749C50.6476 265.01 48.994 265.641 47.341 265.641Z" fill="white"/>
<path d="M134.691 217.183C133.038 217.183 131.385 216.552 130.124 215.291L53.7028 138.87C51.1804 136.348 51.1804 132.258 53.7028 129.735C56.2252 127.213 60.3153 127.213 62.8383 129.735L139.259 206.156C141.782 208.679 141.782 212.769 139.259 215.292C137.998 216.553 136.344 217.183 134.691 217.183Z" fill="white"/>
<path d="M167.673 141.153C157.032 141.153 147.029 137.009 139.507 129.483C131.985 121.964 127.84 111.962 127.84 101.321C127.84 90.6793 131.985 80.677 139.509 73.155C147.029 65.6325 157.031 61.4881 167.672 61.4881C178.313 61.4881 188.316 65.6325 195.838 73.157C203.359 80.6763 207.504 90.6787 207.504 101.32C207.504 111.96 203.36 121.961 195.838 129.483C195.837 129.484 195.837 129.483 195.835 129.485C188.314 137.009 178.313 141.153 167.673 141.153ZM167.673 74.4082C160.483 74.4082 153.726 77.2077 148.645 82.2912C143.559 87.3741 140.76 94.1319 140.76 101.321C140.76 108.51 143.559 115.268 148.643 120.349C153.726 125.435 160.483 128.234 167.673 128.234C174.862 128.234 181.62 125.435 186.7 120.351C186.701 120.35 186.702 120.35 186.703 120.349C191.786 115.268 194.586 108.51 194.586 101.321C194.586 94.1319 191.786 87.3741 186.703 82.2938C181.62 77.2077 174.862 74.4082 167.673 74.4082Z" fill="white"/>
<path d="M57.6767 191.391C56.5075 191.391 55.3242 191.075 54.2597 190.409C51.2341 188.519 50.3143 184.533 52.2043 181.508L71.8989 149.987C73.7896 146.961 77.775 146.04 80.7999 147.931C83.8255 149.821 84.7453 153.807 82.8553 156.832L63.1607 188.353C61.9353 190.315 59.8302 191.391 57.6767 191.391Z" fill="white"/>
<path d="M70.8726 204.587C69.2197 204.587 67.5667 203.956 66.3052 202.695C63.7828 200.173 63.7822 196.083 66.3046 193.56L91.916 167.948C94.4384 165.427 98.5284 165.427 101.051 167.948C103.573 170.471 103.574 174.561 101.051 177.083L75.44 202.695C74.1792 203.957 72.5256 204.587 70.8726 204.587Z" fill="white"/>
<path d="M84.0753 217.778C81.9218 217.778 79.8167 216.702 78.5913 214.741C76.7013 211.715 77.6218 207.73 80.6467 205.84L112.168 186.146C115.193 184.254 119.179 185.175 121.069 188.201C122.959 191.227 122.039 195.211 119.014 197.101L87.4924 216.796C86.4272 217.461 85.2445 217.778 84.0753 217.778Z" fill="white"/>
<path d="M114.561 75.2511C113.071 75.2511 111.574 74.7382 110.355 73.6912C107.649 71.3664 107.34 67.2886 109.664 64.5822L131.439 39.2356C133.763 36.5304 137.841 36.2203 140.548 38.5457C143.254 40.8704 143.563 44.9482 141.238 47.6541L119.463 73.0007C118.186 74.4876 116.379 75.2511 114.561 75.2511Z" fill="white"/>
<path d="M102.23 227.872C95.4808 227.872 88.8438 225.233 83.9237 220.307L79.6721 216.055C79.6121 216 79.5533 215.943 79.4958 215.885L48.6885 185.077C41.5883 177.968 39.2429 167.294 42.7077 157.877L52.2095 132.071C52.4762 131.348 52.8696 130.678 53.3715 130.094L109.658 64.5828C111.985 61.8776 116.062 61.5682 118.767 63.8929C121.473 66.2183 121.782 70.2961 119.457 73.0019L63.9293 137.628L54.8307 162.34C53.0983 167.048 54.2726 172.388 57.8227 175.942L88.4608 206.581C88.5202 206.637 88.5796 206.693 88.6371 206.751L93.0618 211.176C96.6125 214.731 101.947 215.903 106.657 214.166L131.366 205.066L221.346 127.763C224.053 125.438 228.131 125.749 230.455 128.453C232.781 131.159 232.471 135.237 229.765 137.562L138.9 215.623C138.316 216.125 137.647 216.519 136.924 216.785L111.125 226.287C108.232 227.354 105.219 227.872 102.23 227.872Z" fill="white"/>
<path d="M225.555 139.121C223.902 139.121 222.249 138.49 220.987 137.229C218.465 134.707 218.465 130.617 220.987 128.094C233.832 115.25 243.364 100.115 249.32 83.1083C256.901 61.4616 258.122 38.3771 252.896 16.1033C230.624 10.8783 207.538 12.0991 185.891 19.6792C168.884 25.6354 153.749 35.1681 140.905 48.0119C138.382 50.5337 134.293 50.5343 131.769 48.0119C129.247 45.4895 129.247 41.3995 131.769 38.8764C145.996 24.6503 162.768 14.0886 181.62 7.48646C206.914 -1.36999 233.979 -2.38992 259.889 4.54034C262.12 5.13719 263.863 6.87992 264.46 9.11099C271.389 35.0221 270.371 62.0869 261.512 87.3792C254.91 106.231 244.349 123.003 230.122 137.229C228.861 138.49 227.208 139.121 225.555 139.121Z" fill="white"/>
<path d="M255.41 91.7038C253.757 91.7038 252.105 91.0727 250.843 89.8118L179.189 18.1574C176.667 15.635 176.667 11.5449 179.189 9.02186C181.713 6.49947 185.802 6.50077 188.325 9.02186L259.978 80.6763C262.501 83.1987 262.501 87.2888 259.978 89.8118C258.716 91.0727 257.063 91.7038 255.41 91.7038Z" fill="white"/>
<path d="M58.2767 140.762C57.7393 140.762 57.198 140.695 56.6767 140.562L13.8317 129.659C11.8699 129.16 10.2551 127.769 9.47094 125.904C8.68612 124.037 8.82177 121.911 9.83654 120.16C14.8606 111.493 21.0468 103.456 28.2244 96.2719C51.0138 73.4825 82.56 61.1038 114.772 62.3362C118.24 62.4499 121.019 65.2966 121.019 68.7917C121.019 72.3586 118.131 75.2511 114.563 75.2511H114.557C114.475 75.2511 114.392 75.2498 114.31 75.2466C85.6709 74.1491 57.6198 85.1456 37.3619 105.404C33.0444 109.725 29.1313 114.392 25.6698 119.341L59.73 128.009C62.5948 128.67 64.7328 131.237 64.7328 134.302C64.7328 137.87 61.8442 140.762 58.2767 140.762Z" fill="white"/>
<path d="M145.601 260.034C144.752 260.034 143.9 259.867 143.097 259.529C141.231 258.745 139.841 257.13 139.341 255.169L128.431 212.318C127.55 208.86 129.64 205.344 133.097 204.464C136.552 203.582 140.07 205.673 140.95 209.13L149.658 243.331C154.607 239.87 159.275 235.955 163.598 231.637C183.854 211.381 194.847 183.331 193.752 154.683C193.617 151.118 196.396 148.118 199.961 147.982C203.519 147.831 206.526 150.626 206.662 154.19C207.891 186.42 195.524 217.979 172.73 240.774C165.544 247.952 157.507 254.139 148.839 259.164C147.843 259.742 146.724 260.034 145.601 260.034Z" fill="white"/>
</svg>
