<svg width="204" height="272" viewBox="0 0 204 272" fill="none" xmlns="http://www.w3.org/2000/svg">
<path d="M10.5912 81.1432C18.9111 54.7666 28.0602 38.6887 50.6611 22.7467C88.1306 -3.6832 128.292 -2.93256 160.31 29.891C177.454 47.467 185.24 57.3681 191.372 81.1432C195.276 96.283 198.205 120.592 198.205 120.592L168.075 81.1432C168.075 81.1432 192.591 129.681 186.091 160.972C180.056 190.028 143.226 223.718 143.226 223.718L125.52 155.071L89.1779 270L65.8815 148.237L45.6912 223.718C45.6912 223.718 19.2974 187.897 15.5611 160.972C11.1607 129.263 34.1982 81.1432 34.1982 81.1432L5 120.592C5 120.592 5.91052 95.9822 10.5912 81.1432Z" fill="#FF0000" stroke="black" stroke-width="8"/>
<path d="M35.1014 59.7314C41.0671 40.8195 47.6274 29.2918 63.8332 17.8615C90.7004 -1.08865 119.498 -0.550442 142.456 22.9839C154.749 35.5858 160.332 42.6848 164.729 59.7314C167.528 70.5865 169.629 88.0159 169.629 88.0159L148.024 59.7314C148.024 59.7314 165.603 94.5329 160.942 116.969C156.614 137.801 130.206 161.956 130.206 161.956L117.51 112.737L91.4514 195.141L74.7468 107.837L60.2696 161.956C60.2696 161.956 41.3441 136.273 38.665 116.969C35.5098 94.2328 52.0287 59.7314 52.0287 59.7314L31.0923 88.0159C31.0923 88.0159 31.7452 70.3709 35.1014 59.7314Z" fill="#FF9900" stroke="black" stroke-width="8"/>
</svg>
