<svg width="369" height="369" viewBox="0 0 369 369" fill="none" xmlns="http://www.w3.org/2000/svg">
<path d="M184.505 15.5317C206.411 28.1927 224.151 47.2573 235.177 70.1677L235.172 70.1723L133.838 70.1723L133.834 70.1677C144.86 47.2573 162.6 28.1927 184.505 15.5317Z" fill="#FF7124"/>
<path d="M130.463 244.261L123.941 158.137L123.945 158.133L121.419 124.813C121.419 105.237 125.877 86.7019 133.834 70.1677L133.838 70.1722L235.172 70.1722L235.177 70.1677C243.133 86.7019 247.591 105.237 247.591 124.813L245.065 158.133L238.538 244.261H211.526L184.505 244.261L157.484 244.261L130.463 244.261ZM217.871 143.581C217.875 125.151 202.93 110.206 184.501 110.211C166.071 110.206 151.126 125.151 151.131 143.581C151.126 162.01 166.071 176.955 184.501 176.951C202.93 176.955 217.875 162.01 217.871 143.581Z" fill="#2A4C64"/>
<path d="M245.065 158.133C266.688 178.165 280.225 206.813 280.225 238.611C280.221 248.372 278.951 257.836 276.553 266.847L238.538 244.261L245.065 158.133Z" fill="#2A4C64"/>
<path d="M184.5 110.211C202.93 110.206 217.875 125.151 217.87 143.581C217.875 162.01 202.93 176.955 184.5 176.95C166.071 176.955 151.126 162.01 151.13 143.581C151.126 125.151 166.071 110.206 184.5 110.211Z" fill="#8ECAC1"/>
<path d="M238.538 244.261L227.014 269.222C223.849 276.087 216.98 280.481 209.42 280.477H203.163L211.526 244.261H238.538Z" fill="#803493"/>
<path d="M211.526 244.261L203.163 280.477L203.159 280.481L184.505 280.481L184.505 244.261L211.526 244.261Z" fill="#803493"/>
<path d="M123.94 158.137L130.463 244.261L92.4567 266.847C90.0588 257.836 88.789 248.372 88.7845 238.611C88.7845 206.813 102.313 178.175 123.94 158.137Z" fill="#2A4C64"/>
<path d="M184.505 244.261L184.505 280.481L165.847 280.477L157.484 244.261L184.505 244.261Z" fill="#803493"/>
<path d="M157.484 244.261L165.847 280.477L159.585 280.481C152.026 280.477 145.161 276.087 141.991 269.227L130.463 244.261L157.484 244.261Z" fill="#803493"/>
<path d="M243.105 248.829C241.936 249.998 240.321 250.72 238.538 250.721L130.462 250.721C126.895 250.721 124.003 247.828 124.003 244.261C124.003 240.694 126.895 237.802 130.462 237.801L238.538 237.802C242.106 237.802 244.998 240.694 244.998 244.261C244.998 246.045 244.274 247.66 243.105 248.829Z" fill="white"/>
<path d="M212.666 171.746C205.141 179.27 195.138 183.413 184.498 183.41C173.862 183.413 163.859 179.27 156.334 171.746C148.81 164.221 144.668 154.218 144.669 143.579C144.667 132.943 148.809 122.939 156.334 115.415C163.858 107.89 173.861 103.748 184.501 103.75C195.137 103.748 205.14 107.89 212.664 115.415C220.188 122.938 224.33 132.941 224.329 143.578C224.33 143.58 224.329 143.579 224.329 143.582C224.331 154.22 220.189 164.222 212.666 171.746ZM165.47 124.55C160.386 129.634 157.588 136.392 157.59 143.579C157.588 150.769 160.386 157.527 165.47 162.611C170.554 167.695 177.312 170.493 184.499 170.491C191.689 170.493 198.447 167.695 203.531 162.611C208.614 157.527 211.413 150.769 211.411 143.582C211.411 143.581 211.411 143.58 211.411 143.579C211.413 136.392 208.614 129.634 203.531 124.55C198.447 119.467 191.689 116.668 184.502 116.67C177.312 116.668 170.554 119.467 165.47 124.55Z" fill="white"/>
<path d="M170.411 285.049C169.584 285.875 168.523 286.488 167.3 286.77C163.824 287.573 160.355 285.405 159.553 281.93L151.19 245.715C150.387 242.238 152.554 238.769 156.03 237.967C159.506 237.164 162.975 239.332 163.777 242.807L172.14 279.023C172.661 281.276 171.933 283.526 170.411 285.049Z" fill="white"/>
<path d="M189.072 285.049C187.903 286.218 186.288 286.94 184.505 286.941C180.938 286.941 178.045 284.049 178.045 280.481L178.045 244.261C178.045 240.695 180.937 237.802 184.504 237.802C188.071 237.802 190.964 240.694 190.964 244.261L190.964 280.481C190.965 282.265 190.241 283.88 189.072 285.049Z" fill="white"/>
<path d="M207.736 285.04C206.213 286.563 203.963 287.29 201.71 286.77C198.234 285.967 196.067 282.498 196.87 279.023L205.233 242.808C206.034 239.331 209.504 237.164 212.981 237.967C216.456 238.77 218.623 242.239 217.821 245.714L209.458 281.93C209.175 283.153 208.562 284.213 207.736 285.04Z" fill="white"/>
<path d="M128.511 162.702C127.457 163.756 126.035 164.452 124.433 164.573C120.876 164.843 117.774 162.178 117.504 158.62L114.978 125.301C114.709 121.744 117.373 118.642 120.931 118.372C124.488 118.102 127.591 120.767 127.86 124.325L130.386 157.644C130.534 159.599 129.796 161.417 128.511 162.702Z" fill="white"/>
<path d="M227.71 279.341C222.938 284.113 216.379 286.94 209.416 286.936H203.404C203.322 286.939 203.241 286.941 203.159 286.94L159.59 286.94C149.543 286.933 140.337 281.044 136.128 271.936L124.599 246.969C124.276 246.269 124.081 245.517 124.023 244.749L117.5 158.625C117.232 155.067 119.896 151.966 123.453 151.696C127.011 151.427 130.113 154.092 130.382 157.649L136.816 242.611L147.856 266.519C149.96 271.073 154.566 274.018 159.59 274.022L202.919 274.022C203 274.019 203.082 274.017 203.164 274.017H209.421C214.446 274.021 219.047 271.077 221.15 266.519L232.186 242.612L241.151 124.325C241.421 120.767 244.524 118.103 248.08 118.372C251.637 118.641 254.302 121.744 254.033 125.301L244.979 244.75C244.921 245.517 244.726 246.269 244.403 246.968L232.879 271.93C231.588 274.73 229.824 277.227 227.71 279.341Z" fill="white"/>
<path d="M252.158 129.38C250.989 130.549 249.374 131.272 247.591 131.272C244.024 131.272 241.131 128.38 241.131 124.812C241.131 106.648 237.17 89.2058 229.356 72.9685C219.409 52.3016 203.949 35.1151 184.504 23.0602C165.061 35.1142 149.6 52.302 139.653 72.9685C131.839 89.2058 127.877 106.649 127.877 124.813C127.877 128.38 124.986 131.272 121.418 131.273C117.85 131.273 114.958 128.381 114.958 124.813C114.958 104.694 119.35 85.3655 128.012 67.3669C139.635 43.2192 158.051 23.3603 181.273 9.93924C183.273 8.78367 185.737 8.78366 187.737 9.93923C210.959 23.3612 229.376 43.2192 240.997 67.3674C249.658 85.3659 254.05 104.693 254.05 124.813C254.05 126.596 253.327 128.211 252.158 129.38Z" fill="white"/>
<path d="M239.74 74.7402C238.57 75.9094 236.956 76.6316 235.172 76.632L133.838 76.6316C130.271 76.6316 127.379 73.7394 127.378 70.1718C127.38 66.6032 130.272 63.7129 133.838 63.712L235.172 63.7125C238.739 63.7125 241.632 66.6046 241.632 70.1722C241.631 71.9563 240.909 73.5714 239.74 74.7402Z" fill="white"/>
<path d="M135.035 248.824C134.655 249.204 134.224 249.539 133.762 249.814L95.7563 272.401C94.0161 273.435 91.8909 273.593 90.0173 272.828C88.1428 272.064 86.7351 270.464 86.2144 268.509C83.6384 258.827 82.3298 248.77 82.3253 238.615C82.3253 206.386 95.8788 175.326 119.528 153.42C122.06 151.048 126.038 151.096 128.51 153.568C131.032 156.09 131.035 160.178 128.512 162.7L128.507 162.705C128.449 162.763 128.39 162.82 128.33 162.876C107.303 182.351 95.2434 209.962 95.2439 238.611C95.2462 244.719 95.7792 250.786 96.8311 256.734L127.044 238.778C129.538 237.221 132.865 237.524 135.032 239.691C137.555 242.214 137.557 246.302 135.035 248.824Z" fill="white"/>
<path d="M281.121 271.415C280.52 272.015 279.8 272.499 278.993 272.828C277.118 273.593 274.994 273.435 273.254 272.401L235.238 249.815C232.171 247.993 231.162 244.029 232.985 240.963C234.804 237.896 238.77 236.887 241.837 238.709L272.178 256.735C273.23 250.788 273.763 244.719 273.766 238.609C273.766 209.962 261.705 182.355 240.674 162.872C238.057 160.447 237.901 156.36 240.325 153.744C242.735 151.121 246.837 150.971 249.454 153.395C273.113 175.316 286.684 206.376 286.684 238.613C286.679 248.769 285.371 258.827 282.794 268.509C282.499 269.623 281.914 270.621 281.121 271.415Z" fill="white"/>
</svg>
